<mxfile host="app.diagrams.net" agent="Mozilla/5.0 (Windows NT 10.0; Win64; x64) AppleWebKit/537.36 (KHTML, like Gecko) Chrome/133.0.0.0 Safari/537.36" version="26.0.15">
  <diagram name="Seite-1" id="deK28byZMGtxErjK4TXw">
    <mxGraphModel dx="2864" dy="1490" grid="1" gridSize="10" guides="1" tooltips="1" connect="1" arrows="1" fold="1" page="1" pageScale="1" pageWidth="1169" pageHeight="827" math="0" shadow="0">
      <root>
        <mxCell id="0" />
        <mxCell id="1" parent="0" />
        <mxCell id="BO4UAbQa7xvl9IpGRvDO-49" value="" style="group" vertex="1" connectable="0" parent="1">
          <mxGeometry x="205" y="79" width="760" height="670" as="geometry" />
        </mxCell>
        <mxCell id="9cPdN_Jzde0D0jM6r5YM-1" value="BasisStation&lt;span style=&quot;white-space: pre;&quot;&gt;&#x9;&lt;/span&gt;&lt;span style=&quot;white-space: pre;&quot;&gt;&#x9;&lt;/span&gt;&lt;span style=&quot;white-space: pre;&quot;&gt;&#x9;&lt;/span&gt;" style="rounded=1;whiteSpace=wrap;html=1;dashed=1;align=right;verticalAlign=bottom;" parent="BO4UAbQa7xvl9IpGRvDO-49" vertex="1">
          <mxGeometry y="50" width="760" height="570" as="geometry" />
        </mxCell>
        <mxCell id="9cPdN_Jzde0D0jM6r5YM-2" value="ESP32-S3-WROOM-1U" style="whiteSpace=wrap;html=1;aspect=fixed;strokeWidth=2;" parent="BO4UAbQa7xvl9IpGRvDO-49" vertex="1">
          <mxGeometry x="325" y="280" width="110" height="110" as="geometry" />
        </mxCell>
        <mxCell id="BO4UAbQa7xvl9IpGRvDO-5" style="edgeStyle=orthogonalEdgeStyle;rounded=0;orthogonalLoop=1;jettySize=auto;html=1;entryX=0.5;entryY=0;entryDx=0;entryDy=0;startArrow=classic;startFill=1;" edge="1" parent="BO4UAbQa7xvl9IpGRvDO-49" source="9cPdN_Jzde0D0jM6r5YM-3" target="BO4UAbQa7xvl9IpGRvDO-1">
          <mxGeometry relative="1" as="geometry" />
        </mxCell>
        <mxCell id="BO4UAbQa7xvl9IpGRvDO-7" value="D+/D-" style="edgeLabel;html=1;align=center;verticalAlign=middle;resizable=0;points=[];" vertex="1" connectable="0" parent="BO4UAbQa7xvl9IpGRvDO-5">
          <mxGeometry x="-0.0082" y="1" relative="1" as="geometry">
            <mxPoint as="offset" />
          </mxGeometry>
        </mxCell>
        <mxCell id="9cPdN_Jzde0D0jM6r5YM-3" value="" style="sketch=0;aspect=fixed;pointerEvents=1;shadow=0;dashed=0;html=1;strokeColor=none;labelPosition=center;verticalLabelPosition=bottom;verticalAlign=top;align=center;fillColor=light-dark(#000000, #bfd3ff);shape=mxgraph.mscae.enterprise.usb;direction=south;" parent="BO4UAbQa7xvl9IpGRvDO-49" vertex="1">
          <mxGeometry x="368.5" y="40" width="23" height="50" as="geometry" />
        </mxCell>
        <mxCell id="BO4UAbQa7xvl9IpGRvDO-11" style="edgeStyle=orthogonalEdgeStyle;rounded=0;orthogonalLoop=1;jettySize=auto;html=1;entryX=0.5;entryY=0;entryDx=0;entryDy=0;startArrow=none;startFill=0;strokeColor=#FF3333;" edge="1" parent="BO4UAbQa7xvl9IpGRvDO-49" source="9cPdN_Jzde0D0jM6r5YM-4" target="BO4UAbQa7xvl9IpGRvDO-10">
          <mxGeometry relative="1" as="geometry" />
        </mxCell>
        <mxCell id="BO4UAbQa7xvl9IpGRvDO-12" value="+24V" style="edgeLabel;html=1;align=center;verticalAlign=middle;resizable=0;points=[];" vertex="1" connectable="0" parent="BO4UAbQa7xvl9IpGRvDO-11">
          <mxGeometry x="0.0333" relative="1" as="geometry">
            <mxPoint as="offset" />
          </mxGeometry>
        </mxCell>
        <mxCell id="9cPdN_Jzde0D0jM6r5YM-4" value="" style="fontColor=#0066CC;verticalAlign=top;verticalLabelPosition=bottom;labelPosition=center;align=center;html=1;outlineConnect=0;fillColor=light-dark(#050505, #3e3e3e);strokeColor=none;gradientColor=none;gradientDirection=north;strokeWidth=2;shape=mxgraph.networks.comm_link;" parent="BO4UAbQa7xvl9IpGRvDO-49" vertex="1">
          <mxGeometry x="90" y="10" width="20" height="70" as="geometry" />
        </mxCell>
        <mxCell id="BO4UAbQa7xvl9IpGRvDO-6" style="edgeStyle=orthogonalEdgeStyle;rounded=0;orthogonalLoop=1;jettySize=auto;html=1;entryX=0.5;entryY=0;entryDx=0;entryDy=0;startArrow=classic;startFill=1;" edge="1" parent="BO4UAbQa7xvl9IpGRvDO-49" source="BO4UAbQa7xvl9IpGRvDO-1" target="9cPdN_Jzde0D0jM6r5YM-2">
          <mxGeometry relative="1" as="geometry" />
        </mxCell>
        <mxCell id="BO4UAbQa7xvl9IpGRvDO-8" value="TX/RX" style="edgeLabel;html=1;align=center;verticalAlign=middle;resizable=0;points=[];" vertex="1" connectable="0" parent="BO4UAbQa7xvl9IpGRvDO-6">
          <mxGeometry x="-0.0048" y="1" relative="1" as="geometry">
            <mxPoint as="offset" />
          </mxGeometry>
        </mxCell>
        <mxCell id="BO4UAbQa7xvl9IpGRvDO-1" value="USB-UART-Bridge" style="rounded=0;whiteSpace=wrap;html=1;strokeWidth=2;" vertex="1" parent="BO4UAbQa7xvl9IpGRvDO-49">
          <mxGeometry x="320" y="160" width="120" height="60" as="geometry" />
        </mxCell>
        <mxCell id="BO4UAbQa7xvl9IpGRvDO-4" value="" style="html=1;verticalLabelPosition=bottom;align=center;labelBackgroundColor=#ffffff;verticalAlign=top;strokeWidth=2;strokeColor=none;shadow=0;dashed=0;shape=mxgraph.ios7.icons.wifi;pointerEvents=1;fillColor=#000000;" vertex="1" parent="BO4UAbQa7xvl9IpGRvDO-49">
          <mxGeometry x="180" y="9" width="50" height="41" as="geometry" />
        </mxCell>
        <mxCell id="BO4UAbQa7xvl9IpGRvDO-36" style="edgeStyle=orthogonalEdgeStyle;rounded=0;orthogonalLoop=1;jettySize=auto;html=1;entryX=0.5;entryY=1;entryDx=0;entryDy=0;startArrow=classic;startFill=1;strokeColor=#FF3333;endArrow=none;" edge="1" parent="BO4UAbQa7xvl9IpGRvDO-49" source="BO4UAbQa7xvl9IpGRvDO-29" target="BO4UAbQa7xvl9IpGRvDO-10">
          <mxGeometry relative="1" as="geometry">
            <Array as="points">
              <mxPoint x="100" y="330" />
              <mxPoint x="100" y="330" />
            </Array>
          </mxGeometry>
        </mxCell>
        <mxCell id="BO4UAbQa7xvl9IpGRvDO-9" style="edgeStyle=orthogonalEdgeStyle;rounded=0;orthogonalLoop=1;jettySize=auto;html=1;entryX=0.004;entryY=0.126;entryDx=0;entryDy=0;entryPerimeter=0;exitX=0.269;exitY=0.007;exitDx=0;exitDy=0;exitPerimeter=0;startArrow=classic;startFill=1;" edge="1" parent="BO4UAbQa7xvl9IpGRvDO-49" source="9cPdN_Jzde0D0jM6r5YM-1" target="9cPdN_Jzde0D0jM6r5YM-2">
          <mxGeometry relative="1" as="geometry">
            <Array as="points">
              <mxPoint x="204" y="90" />
              <mxPoint x="204" y="294" />
            </Array>
          </mxGeometry>
        </mxCell>
        <mxCell id="BO4UAbQa7xvl9IpGRvDO-13" style="edgeStyle=orthogonalEdgeStyle;rounded=0;orthogonalLoop=1;jettySize=auto;html=1;entryX=0;entryY=0.5;entryDx=0;entryDy=0;startArrow=none;startFill=0;strokeColor=#FF0000;" edge="1" parent="BO4UAbQa7xvl9IpGRvDO-49" source="BO4UAbQa7xvl9IpGRvDO-10" target="9cPdN_Jzde0D0jM6r5YM-2">
          <mxGeometry relative="1" as="geometry">
            <Array as="points">
              <mxPoint x="100" y="335" />
            </Array>
          </mxGeometry>
        </mxCell>
        <mxCell id="BO4UAbQa7xvl9IpGRvDO-14" value="+3,3V" style="edgeLabel;html=1;align=center;verticalAlign=middle;resizable=0;points=[];" vertex="1" connectable="0" parent="BO4UAbQa7xvl9IpGRvDO-13">
          <mxGeometry x="-0.6426" relative="1" as="geometry">
            <mxPoint y="-38" as="offset" />
          </mxGeometry>
        </mxCell>
        <mxCell id="BO4UAbQa7xvl9IpGRvDO-47" style="edgeStyle=orthogonalEdgeStyle;rounded=0;orthogonalLoop=1;jettySize=auto;html=1;entryX=0.5;entryY=0;entryDx=0;entryDy=0;strokeColor=#FF3333;" edge="1" parent="BO4UAbQa7xvl9IpGRvDO-49" source="BO4UAbQa7xvl9IpGRvDO-10" target="BO4UAbQa7xvl9IpGRvDO-42">
          <mxGeometry relative="1" as="geometry">
            <Array as="points">
              <mxPoint x="100" y="280" />
              <mxPoint x="300" y="280" />
              <mxPoint x="300" y="260" />
              <mxPoint x="575" y="260" />
            </Array>
          </mxGeometry>
        </mxCell>
        <mxCell id="BO4UAbQa7xvl9IpGRvDO-10" value="DC/DC Converter" style="rounded=0;whiteSpace=wrap;html=1;strokeWidth=2;" vertex="1" parent="BO4UAbQa7xvl9IpGRvDO-49">
          <mxGeometry x="60" y="140" width="80" height="40" as="geometry" />
        </mxCell>
        <mxCell id="BO4UAbQa7xvl9IpGRvDO-26" style="edgeStyle=orthogonalEdgeStyle;rounded=0;orthogonalLoop=1;jettySize=auto;html=1;entryX=0;entryY=0.75;entryDx=0;entryDy=0;endArrow=none;startFill=1;startArrow=classic;" edge="1" parent="BO4UAbQa7xvl9IpGRvDO-49" source="BO4UAbQa7xvl9IpGRvDO-19" target="9cPdN_Jzde0D0jM6r5YM-2">
          <mxGeometry relative="1" as="geometry">
            <Array as="points">
              <mxPoint x="205" y="363" />
            </Array>
          </mxGeometry>
        </mxCell>
        <mxCell id="BO4UAbQa7xvl9IpGRvDO-19" value="" style="verticalLabelPosition=bottom;shadow=0;dashed=0;align=center;html=1;verticalAlign=top;shape=mxgraph.electrical.opto_electronics.lamp;direction=west;fillColor=#66FF66;" vertex="1" parent="BO4UAbQa7xvl9IpGRvDO-49">
          <mxGeometry x="190" y="610" width="30" height="60" as="geometry" />
        </mxCell>
        <mxCell id="BO4UAbQa7xvl9IpGRvDO-25" style="edgeStyle=orthogonalEdgeStyle;rounded=0;orthogonalLoop=1;jettySize=auto;html=1;entryX=0.25;entryY=1;entryDx=0;entryDy=0;endArrow=none;startFill=1;startArrow=classic;" edge="1" parent="BO4UAbQa7xvl9IpGRvDO-49" source="BO4UAbQa7xvl9IpGRvDO-20" target="9cPdN_Jzde0D0jM6r5YM-2">
          <mxGeometry relative="1" as="geometry">
            <Array as="points">
              <mxPoint x="265" y="460" />
              <mxPoint x="353" y="460" />
            </Array>
          </mxGeometry>
        </mxCell>
        <mxCell id="BO4UAbQa7xvl9IpGRvDO-20" value="" style="verticalLabelPosition=bottom;shadow=0;dashed=0;align=center;html=1;verticalAlign=top;shape=mxgraph.electrical.opto_electronics.lamp;direction=west;fillColor=#FF3333;" vertex="1" parent="BO4UAbQa7xvl9IpGRvDO-49">
          <mxGeometry x="250" y="610" width="30" height="60" as="geometry" />
        </mxCell>
        <mxCell id="BO4UAbQa7xvl9IpGRvDO-23" style="edgeStyle=orthogonalEdgeStyle;rounded=0;orthogonalLoop=1;jettySize=auto;html=1;entryX=0.75;entryY=1;entryDx=0;entryDy=0;endArrow=none;startFill=1;startArrow=classic;" edge="1" parent="BO4UAbQa7xvl9IpGRvDO-49" source="BO4UAbQa7xvl9IpGRvDO-21" target="9cPdN_Jzde0D0jM6r5YM-2">
          <mxGeometry relative="1" as="geometry" />
        </mxCell>
        <mxCell id="BO4UAbQa7xvl9IpGRvDO-21" value="" style="verticalLabelPosition=bottom;shadow=0;dashed=0;align=center;html=1;verticalAlign=top;shape=mxgraph.electrical.opto_electronics.lamp;direction=west;fillColor=#3333FF;" vertex="1" parent="BO4UAbQa7xvl9IpGRvDO-49">
          <mxGeometry x="365" y="610" width="30" height="60" as="geometry" />
        </mxCell>
        <mxCell id="BO4UAbQa7xvl9IpGRvDO-24" style="edgeStyle=orthogonalEdgeStyle;rounded=0;orthogonalLoop=1;jettySize=auto;html=1;entryX=0.5;entryY=1;entryDx=0;entryDy=0;endArrow=none;startFill=1;startArrow=classic;" edge="1" parent="BO4UAbQa7xvl9IpGRvDO-49" source="BO4UAbQa7xvl9IpGRvDO-22" target="9cPdN_Jzde0D0jM6r5YM-2">
          <mxGeometry relative="1" as="geometry">
            <Array as="points">
              <mxPoint x="325" y="480" />
              <mxPoint x="380" y="480" />
            </Array>
          </mxGeometry>
        </mxCell>
        <mxCell id="BO4UAbQa7xvl9IpGRvDO-22" value="" style="verticalLabelPosition=bottom;shadow=0;dashed=0;align=center;html=1;verticalAlign=top;shape=mxgraph.electrical.opto_electronics.lamp;direction=west;fillColor=#FFFF33;" vertex="1" parent="BO4UAbQa7xvl9IpGRvDO-49">
          <mxGeometry x="310" y="610" width="30" height="60" as="geometry" />
        </mxCell>
        <mxCell id="BO4UAbQa7xvl9IpGRvDO-40" value="" style="group" vertex="1" connectable="0" parent="BO4UAbQa7xvl9IpGRvDO-49">
          <mxGeometry x="60" y="380" width="70" height="30" as="geometry" />
        </mxCell>
        <mxCell id="BO4UAbQa7xvl9IpGRvDO-31" value="" style="group" vertex="1" connectable="0" parent="BO4UAbQa7xvl9IpGRvDO-40">
          <mxGeometry x="30" width="40" height="30" as="geometry" />
        </mxCell>
        <mxCell id="BO4UAbQa7xvl9IpGRvDO-29" value="" style="whiteSpace=wrap;html=1;aspect=fixed;strokeWidth=2;" vertex="1" parent="BO4UAbQa7xvl9IpGRvDO-31">
          <mxGeometry width="30" height="30" as="geometry" />
        </mxCell>
        <mxCell id="BO4UAbQa7xvl9IpGRvDO-30" value="" style="ellipse;whiteSpace=wrap;html=1;aspect=fixed;" vertex="1" parent="BO4UAbQa7xvl9IpGRvDO-31">
          <mxGeometry x="7.5" y="7.5" width="15" height="15" as="geometry" />
        </mxCell>
        <mxCell id="BO4UAbQa7xvl9IpGRvDO-39" value="RST-Button" style="text;html=1;align=center;verticalAlign=middle;whiteSpace=wrap;rounded=0;" vertex="1" parent="BO4UAbQa7xvl9IpGRvDO-40">
          <mxGeometry x="-40" width="70" height="30" as="geometry" />
        </mxCell>
        <mxCell id="BO4UAbQa7xvl9IpGRvDO-41" value="" style="group" vertex="1" connectable="0" parent="BO4UAbQa7xvl9IpGRvDO-49">
          <mxGeometry x="50" y="230" width="70" height="30" as="geometry" />
        </mxCell>
        <mxCell id="BO4UAbQa7xvl9IpGRvDO-33" value="" style="group;strokeWidth=1;" vertex="1" connectable="0" parent="BO4UAbQa7xvl9IpGRvDO-41">
          <mxGeometry x="30" width="40" height="30" as="geometry" />
        </mxCell>
        <mxCell id="BO4UAbQa7xvl9IpGRvDO-34" value="" style="whiteSpace=wrap;html=1;aspect=fixed;strokeWidth=2;" vertex="1" parent="BO4UAbQa7xvl9IpGRvDO-33">
          <mxGeometry width="30" height="30" as="geometry" />
        </mxCell>
        <mxCell id="BO4UAbQa7xvl9IpGRvDO-35" value="" style="ellipse;whiteSpace=wrap;html=1;aspect=fixed;" vertex="1" parent="BO4UAbQa7xvl9IpGRvDO-33">
          <mxGeometry x="7.5" y="7.5" width="15" height="15" as="geometry" />
        </mxCell>
        <mxCell id="BO4UAbQa7xvl9IpGRvDO-38" value="PW-Button" style="text;html=1;align=center;verticalAlign=middle;whiteSpace=wrap;rounded=0;" vertex="1" parent="BO4UAbQa7xvl9IpGRvDO-41">
          <mxGeometry x="-40" width="70" height="30" as="geometry" />
        </mxCell>
        <mxCell id="BO4UAbQa7xvl9IpGRvDO-45" style="edgeStyle=orthogonalEdgeStyle;rounded=0;orthogonalLoop=1;jettySize=auto;html=1;entryX=1;entryY=0.25;entryDx=0;entryDy=0;startArrow=classic;startFill=1;" edge="1" parent="BO4UAbQa7xvl9IpGRvDO-49" source="BO4UAbQa7xvl9IpGRvDO-42" target="9cPdN_Jzde0D0jM6r5YM-2">
          <mxGeometry relative="1" as="geometry" />
        </mxCell>
        <mxCell id="BO4UAbQa7xvl9IpGRvDO-42" value="PROG" style="rounded=0;whiteSpace=wrap;html=1;strokeWidth=2;" vertex="1" parent="BO4UAbQa7xvl9IpGRvDO-49">
          <mxGeometry x="530" y="290" width="90" height="35" as="geometry" />
        </mxCell>
        <mxCell id="BO4UAbQa7xvl9IpGRvDO-44" style="edgeStyle=orthogonalEdgeStyle;rounded=0;orthogonalLoop=1;jettySize=auto;html=1;entryX=1;entryY=0.75;entryDx=0;entryDy=0;startArrow=classic;startFill=1;" edge="1" parent="BO4UAbQa7xvl9IpGRvDO-49" source="BO4UAbQa7xvl9IpGRvDO-43" target="9cPdN_Jzde0D0jM6r5YM-2">
          <mxGeometry relative="1" as="geometry" />
        </mxCell>
        <mxCell id="BO4UAbQa7xvl9IpGRvDO-43" value="JTAG" style="rounded=0;whiteSpace=wrap;html=1;strokeWidth=2;" vertex="1" parent="BO4UAbQa7xvl9IpGRvDO-49">
          <mxGeometry x="530" y="345" width="90" height="35" as="geometry" />
        </mxCell>
        <mxCell id="BO4UAbQa7xvl9IpGRvDO-48" value="&lt;b&gt;USB-Micro-B to PC for Debug&lt;/b&gt;" style="text;html=1;align=center;verticalAlign=middle;whiteSpace=wrap;rounded=0;" vertex="1" parent="BO4UAbQa7xvl9IpGRvDO-49">
          <mxGeometry x="327.5" width="105" height="30" as="geometry" />
        </mxCell>
      </root>
    </mxGraphModel>
  </diagram>
</mxfile>
